<svg width="50" height="50" viewBox="0 0 50 50" xmlns="http://www.w3.org/2000/svg"><path d="M39 46a8 8 0 0 0 8-8V8H13a4 4 0 0 0-4 4v34h30Z" fill="#FBB945"/><path d="M39 42a4 4 0 0 0 4-4V4H13a8 8 0 0 0-8 8v30h34Z" fill="#C49BBB"/><path d="M43 38a4 4 0 0 1-4 4H9V12a4 4 0 0 1 4-4h30v30Z" fill="#714B67"/><path d="M16 17.5a1.5 1.5 0 0 1 1.5-1.5H28l7 7.2v9.3a1.5 1.5 0 0 1-1.5 1.5h-16a1.5 1.5 0 0 1-1.5-1.5Z" fill="none" stroke="#fff" stroke-width="2.2" stroke-linejoin="round"/><circle cx="29.3" cy="21.2" r="1.6" fill="#fff"/><rect x="19.5" y="25.5" width="9" height="2.2" rx="1.1" fill="#fff"/><rect x="19.5" y="29.2" width="12" height="2.2" rx="1.1" fill="#fff"/></svg>
